#!OML:ASF \\sashay\E\Suitcase\Project 1\Capture day 1\Session 1\Male1.ASF
:FULLY-SPECIFIED
:DEGREES
131
root 1.14482 17.494 -35.6916 5.84745 2.33348 -2.93553
lowerback -1.87076 -0.845 -0.362106
upperback -2.51581 -1.08557 3.61471
thorax -1.45749 -0.503623 3.91722
lowerneck -16.7483 -3.39436 -2.25093
upperneck 15.8368 -4.20258 0.650666
head 7.70175 -2.07645 0.10085
rclavicle -7.76503e-016 -3.97569e-015
rhumerus -33.0202 -13.4402 -75.9488
rradius 26.4871
rwrist -13.4971
rhand -17.6281 18.1994
rfingers 7.12502
rthumb 8.62925 -11.6042
lclavicle -7.76503e-016 -3.97569e-015
lhumerus -35.6015 7.49777 85.7759
lradius 28.3969
lwrist -7.70586
lhand -1.21098 42.2143
lfingers 7.12502
lthumb 24.43 70.6766
rfemur -10.548 -0.513997 22.8054
rtibia 26.5393
rfoot -20.5726 -8.32749
rtoes 10.1763
lfemur -11.8829 -4.86179 -17.9749
ltibia 27.9505
lfoot -21.2754 5.74717
ltoes -3.95913
132
root 1.14482 17.4941 -35.6897 5.80246 2.41342 -2.89598
lowerback -1.79456 -0.891912 -0.399057
upperback -2.50846 -1.1469 3.6278
thorax -1.48743 -0.533414 3.95252
lowerneck -16.8526 -3.44944 -2.29983
upperneck 16.1074 -4.2743 0.690227
head 7.81276 -2.10867 0.109013
rclavicle -3.14173e-015 5.08889e-014
rhumerus -33.1033 -13.4259 -75.959
rradius 26.4922
rwrist -13.2335
rhand -17.6936 18.3794
rfingers 7.12502
rthumb 8.56602 -11.4269
lclavicle -3.14173e-015 5.08889e-014
lhumerus -35.5927 6.92164 86.1393
lradius 28.9635
lwrist -7.18103
lhand -1.26595 43.6162
lfingers 7.12502
lthumb 24.3773 72.0856
rfemur -10.5087 -0.621293 22.7524
rtibia 26.561
rfoot -20.6262 -8.16021
rtoes 9.41684
lfemur -11.8503 -4.95198 -18.0244
ltibia 27.955
lfoot -21.2072 5.80312
ltoes -2.88245
133
root 1.1404 17.4931 -35.6923 5.74728 2.35287 -3.05669
lowerback -1.69775 -0.904794 -0.239845
upperback -2.45253 -1.16463 3.67306
thorax -1.48503 -0.545101 3.91027
lowerneck -16.9403 -3.48684 -2.14295
upperneck 15.9842 -4.32096 0.483249
head 7.77912 -2.14154 0.00967739
rclavicle 2.45064e-015 1.35174e-014
rhumerus -33.0566 -13.2991 -76.1292
rradius 26.5503
rwrist -13.387
rhand -17.5387 18.4371
rfingers 7.12502
rthumb 8.71552 -11.363
lclavicle 2.45064e-015 1.35174e-014
lhumerus -35.437 6.85046 86.2111
lradius 28.9718
lwrist -7.43927
lhand -1.42137 43.3343
lfingers 7.12502
lthumb 24.2283 71.8237
rfemur -10.4304 -0.375833 22.9447
rtibia 26.5469
rfoot -20.5705 -8.27527
rtoes 10.2205
lfemur -11.8081 -4.65661 -17.8164
ltibia 27.9865
lfoot -21.2556 5.49655
ltoes -3.35264
134
root 1.13772 17.4967 -35.6906 5.74513 2.36404 -2.95818
lowerback -1.69112 -0.983797 -0.36668
upperback -2.41637 -1.27054 3.68084
thorax -1.44139 -0.596997 3.98899
lowerneck -17.0739 -3.3565 -2.46384
upperneck 16.2229 -4.20043 1.19509
head 7.90394 -2.03145 0.306392
rclavicle -1.48623e-014 4.53229e-014
rhumerus -33.0112 -13.2183 -76.1719
rradius 26.492
rwrist -13.3052
rhand -17.4594 18.7623
rfingers 7.12502
rthumb 8.79202 -11.0346
lclavicle -1.48623e-014 4.53229e-014
lhumerus -35.3823 6.62396 86.3861
lradius 29.3447
lwrist -7.08672
lhand -1.45194 42.9792
lfingers 7.12502
lthumb 24.199 71.4725
rfemur -10.4495 -0.441136 22.8674
rtibia 26.5704
rfoot -20.5719 -8.42744
rtoes 9.15926
lfemur -11.7767 -4.57486 -17.9298
ltibia 27.9643
lfoot -21.2516 5.54336
ltoes -3.29022
135
root 1.13803 17.4879 -35.692 5.64343 2.28998 -3.06375
lowerback -1.62752 -0.923324 -0.186621
upperback -2.30435 -1.19308 3.66131
thorax -1.37117 -0.562901 3.86682
lowerneck -17.0248 -3.39489 -2.06128
upperneck 16.1327 -4.27944 0.807603
head 7.84827 -2.0834 0.105443
rclavicle 7.78366e-015 -1.82882e-014
rhumerus -32.8757 -13.7207 -76.1378
rradius 26.313
rwrist -12.9236
rhand -17.2696 18.4864
rfingers 7.12502
rthumb 8.97523 -11.3027
lclavicle 7.78366e-015 -1.82882e-014
lhumerus -35.1205 6.42253 86.496
lradius 29.4307
lwrist -7.07436
lhand -1.3044 43.2897
lfingers 7.12502
lthumb 24.3404 71.764
rfemur -10.3174 -0.432886 22.9733
rtibia 26.5438
rfoot -20.6323 -8.31031
rtoes 9.62815
lfemur -11.7014 -4.74825 -17.8256
ltibia 28.0078
lfoot -21.3642 5.75134
ltoes -4.03871
136
root 1.13759 17.4923 -35.6947 5.70311 2.34986 -2.94463
lowerback -1.54634 -0.981902 -0.262446
upperback -2.33934 -1.26899 3.61806
thorax -1.44681 -0.599094 3.86646
lowerneck -17.006 -3.32063 -1.85044
upperneck 15.9535 -4.21197 0.719222
head 7.77756 -2.04779 0.0521859
rclavicle -9.49197e-015 -2.38542e-015
rhumerus -32.8655 -13.9114 -76.0947
rradius 26.2291
rwrist -12.7134
rhand -17.1276 18.9492
rfingers 7.12502
rthumb 9.11219 -10.834
lclavicle -9.49197e-015 -2.38542e-015
lhumerus -35.071 6.32175 86.5279
lradius 29.6599
lwrist -7.08052
lhand -1.2644 43.3295
lfingers 7.12502
lthumb 24.3788 71.7988
rfemur -10.4041 -0.500864 22.8361
rtibia 26.5685
rfoot -20.503 -8.26822
rtoes 9.45457
lfemur -11.7809 -4.76766 -17.945
ltibia 28.0114
lfoot -21.2062 5.68661
ltoes -2.91577
137
root 1.13554 17.4939 -35.7015 5.68673 2.28122 -3.06936
lowerback -1.57858 -0.976543 -0.181211
upperback -2.16872 -1.26703 3.72002
thorax -1.25293 -0.602117 3.92311
lowerneck -17.1614 -3.35697 -1.92809
upperneck 15.8393 -4.25432 0.810671
head 7.77105 -2.06291 0.0884215
rclavicle 2.68359e-015 -4.29375e-014
rhumerus -32.6422 -13.6947 -76.2365
rradius 26.4397
rwrist -12.8903
rhand -17.4274 18.2349
rfingers 7.12502
rthumb 8.82293 -11.5607
lclavicle 2.68359e-015 -4.29375e-014
lhumerus -34.6175 5.81307 86.9316
lradius 29.7775
lwrist -6.59178
lhand -1.50951 43.4452
lfingers 7.12502
lthumb 24.1438 71.9458
rfemur -10.4199 -0.198964 22.972
rtibia 26.5795
rfoot -20.6225 -8.31665
rtoes 11.2639
lfemur -11.7852 -4.44234 -17.7897
ltibia 28.0425
lfoot -21.2498 5.40172
ltoes -3.72843
